<?xml version="1.0" standalone="no"?>
<!DOCTYPE svg PUBLIC "-//W3C//DTD SVG 20010904//EN"
 "http://www.w3.org/TR/2001/REC-SVG-20010904/DTD/svg10.dtd">
<svg version="1.0" xmlns="http://www.w3.org/2000/svg"
 width="857.000000pt" height="573.000000pt" viewBox="0 0 857.000000 573.000000"
 preserveAspectRatio="xMidYMid meet">

<g transform="translate(0.000000,573.000000) scale(0.100000,-0.100000)"
fill="#000000" stroke="none">
<path d="M0 4430 l0 -1299 57 -4 58 -3 -57 -2 -58 -2 0 -1390 0 -1390 1835 0
1835 0 0 -135 0 -135 -1835 0 c-1217 0 -1835 -3 -1835 -10 0 -7 923 -10 2750
-10 l2750 0 12 -25 c6 -14 15 -25 20 -25 11 0 10 7 -2 31 -11 19 -3 19 366 19
l376 0 -4 -25 c-3 -14 -1 -25 3 -25 5 0 9 11 9 25 l0 25 1145 0 c757 0 1145 3
1145 10 0 6 -30 10 -70 10 l-70 0 0 245 0 245 70 0 70 0 0 1050 0 1050 -25 6
c-44 11 -75 59 -75 114 0 66 16 97 61 117 l38 18 1 1408 0 1407 -3960 0 -3960
0 0 -156 c0 -101 -3 -153 -10 -149 -6 4 -10 67 -10 156 l0 149 -315 0 -315 0
0 -1300z m7970 1240 c0 -6 -32 -10 -75 -10 l-74 0 -1 -357 c0 -196 -2 -359 -5
-361 -3 -3 -5 162 -5 366 l0 372 80 0 c47 0 80 -4 80 -10z m475 0 c4 -6 -30
-10 -94 -10 -61 0 -101 4 -101 10 0 6 38 10 94 10 53 0 98 -4 101 -10z m-1935
-195 c0 -2 -7 -5 -15 -9 -9 -3 -15 0 -15 9 0 9 6 12 15 9 8 -4 15 -7 15 -9z
m-1872 -12 c-10 -2 -28 -2 -40 0 -13 2 -5 4 17 4 22 1 32 -1 23 -4z m95 0 c-7
-2 -19 -2 -25 0 -7 3 -2 5 12 5 14 0 19 -2 13 -5z m235 0 c-26 -2 -71 -2 -100
0 -29 2 -8 3 47 3 55 0 79 -1 53 -3z m155 0 c-7 -2 -19 -2 -25 0 -7 3 -2 5 12
5 14 0 19 -2 13 -5z m205 0 c-32 -2 -86 -2 -120 0 -35 2 -9 3 57 3 66 0 94 -1
63 -3z m99 1 c-3 -3 -12 -4 -19 -1 -8 3 -5 6 6 6 11 1 17 -2 13 -5z m76 -1
c-7 -2 -21 -2 -30 0 -10 3 -4 5 12 5 17 0 24 -2 18 -5z m114 1 c-3 -3 -12 -4
-19 -1 -8 3 -5 6 6 6 11 1 17 -2 13 -5z m1723 -57 c0 -13 -6 -29 -12 -36 -10
-11 -10 -13 0 -7 8 5 12 0 12 -14 0 -14 -4 -19 -12 -14 -10 6 -10 4 0 -7 6 -7
12 -21 12 -31 0 -16 -17 -18 -260 -18 l-260 0 0 45 c0 48 19 64 21 18 2 -28 2
-28 6 -3 3 14 10 28 17 32 6 4 -1 8 -16 8 -23 0 -28 4 -28 25 l0 25 260 0 260
0 0 -23z m-6690 -822 c0 -448 -4 -815 -8 -815 -5 0 -9 367 -10 815 -1 535 2
815 8 815 7 0 10 -281 10 -815z m7168 -1382 c-2 -1345 -4 -1536 -8 -881 l-5
836 -1117 -570 c-615 -313 -1122 -568 -1127 -566 -5 1 499 262 1120 578 l1129
575 0 873 c0 479 2 872 5 872 3 0 4 -773 3 -1717z m-4278 547 l0 -100 -695 0
-695 0 0 100 0 100 695 0 695 0 0 -100z m-2890 -314 l0 -314 -92 -4 c-51 -2
-111 0 -133 3 -24 4 7 7 83 8 l122 1 1 303 c1 166 1 305 0 310 0 4 4 7 9 7 6
0 10 -111 10 -314z m7880 19 c0 -104 -2 -125 -15 -125 -12 0 -15 19 -15 110
l0 110 -70 0 -70 0 0 -110 c0 -98 -2 -110 -18 -110 -15 0 -17 13 -19 125 l-3
125 105 0 105 0 0 -125z m-140 -670 c0 -104 -2 -125 -15 -125 -12 0 -15 19
-15 110 l0 110 -70 0 -70 0 0 -110 c0 -91 -3 -110 -15 -110 -8 0 -15 3 -16 8
0 4 -2 60 -3 125 l-3 117 104 0 103 0 0 -125z m-4072 -827 c-34 -12 -36 -25
-5 -30 27 -4 31 -45 5 -61 -23 -15 -48 8 -48 44 0 29 31 60 60 58 8 0 3 -5
-12 -11z m1570 0 c-34 -12 -36 -25 -5 -30 17 -2 22 -10 22 -33 0 -23 -5 -31
-22 -33 -17 -3 -26 3 -33 22 -16 44 8 84 50 84 8 0 3 -4 -12 -10z m682 -17 c0
-9 -7 -25 -15 -35 -13 -17 -15 -18 -15 -3 0 9 5 17 10 17 6 0 10 7 10 15 0 9
-9 15 -22 15 -18 0 -20 2 -9 9 19 12 41 3 41 -18z m-2387 -46 c5 -52 12 -64
29 -47 8 8 7 21 -5 52 -8 22 -12 40 -7 40 4 0 11 -11 14 -25 8 -33 22 -32 31
3 4 15 9 22 12 16 2 -6 -5 -32 -16 -57 -20 -47 -46 -61 -57 -32 -7 18 -64 21
-64 3 0 -6 -3 -8 -6 -5 -4 3 1 22 10 41 9 19 16 39 16 45 0 6 8 11 19 11 14 0
19 -10 24 -45z m235 3 l-1 -43 -4 38 c-4 39 -33 55 -33 18 0 -28 -10 -51 -23
-51 -7 0 -7 4 1 12 7 7 12 25 12 40 0 23 4 28 25 28 23 0 25 -3 23 -42z m35 0
c3 -21 2 -38 -4 -38 -5 0 -9 19 -9 42 0 49 5 47 13 -4z m56 0 l-2 -43 -6 35
c-6 35 -7 35 -20 12 -7 -13 -15 -21 -18 -19 -6 7 27 57 38 57 5 0 8 -19 8 -42z
m85 20 c14 -23 -3 -53 -30 -53 -10 0 -22 -9 -26 -20 -3 -12 -6 4 -7 36 -1 54
0 56 25 55 15 -1 32 -9 38 -18z m61 -10 c3 18 11 32 16 32 5 0 1 -19 -8 -42
-18 -49 -31 -68 -45 -68 -5 0 -3 7 6 15 13 13 13 19 0 50 -20 48 -17 57 5 16
l19 -35 7 32z m93 10 c3 -14 -3 -18 -23 -18 -17 0 -25 -5 -22 -12 2 -7 14 -13
26 -12 11 0 21 -3 21 -8 0 -5 -12 -8 -27 -6 -29 3 -41 32 -29 64 8 21 50 14
54 -8z m65 15 c-7 -2 -13 -20 -13 -39 0 -19 -4 -34 -10 -34 -5 0 -10 15 -10
34 0 19 -6 37 -12 39 -7 3 3 5 22 5 19 0 29 -2 23 -5z m102 -33 c0 -30 -4 -35
-25 -37 -25 -3 -25 -3 -2 7 12 5 22 18 22 30 0 12 -10 25 -22 30 -23 10 -23
10 2 7 21 -2 25 -7 25 -37z m68 32 c-6 -4 -13 -23 -16 -42 l-4 -35 -1 37 c-2
25 -7 38 -19 41 -10 3 -2 5 17 6 19 0 30 -3 23 -7z m82 -32 c0 -31 -3 -35 -25
-35 -19 0 -26 6 -28 23 -5 36 5 54 30 50 19 -2 23 -9 23 -38z m73 33 c-13 -3
-18 -16 -20 -41 l-1 -37 -4 35 c-3 19 -10 38 -16 42 -7 4 4 7 23 7 19 -1 27
-3 18 -6z m94 -6 c21 18 21 18 9 -5 -11 -20 -10 -27 5 -43 9 -10 12 -19 6 -19
-6 0 -17 9 -26 21 l-14 21 -5 -23 c-2 -13 -4 -4 -4 21 -1 25 1 37 4 27 5 -18
5 -18 25 0z m102 -9 c15 -25 -4 -53 -35 -53 -25 0 -37 30 -25 61 8 20 46 14
60 -8z m81 -18 c0 -28 -4 -35 -20 -35 -11 0 -23 -9 -27 -20 -3 -12 -6 4 -7 36
-1 55 0 56 27 55 24 -1 27 -5 27 -36z m93 -2 l-1 -43 -4 38 c-3 29 -9 37 -24
37 -15 0 -19 -7 -19 -35 0 -19 -4 -35 -10 -35 -5 0 -10 18 -10 40 0 39 1 40
35 40 35 0 35 0 33 -42z m36 11 l13 -31 12 32 c6 18 13 31 16 28 12 -11 -33
-103 -51 -106 -18 -4 -18 -3 0 11 18 14 19 16 3 56 -9 22 -14 41 -11 41 3 0
11 -14 18 -31z m89 21 c-14 -6 -23 -18 -23 -30 0 -12 10 -25 23 -30 22 -10 22
-10 -3 -7 -44 4 -35 78 9 76 11 0 9 -3 -6 -9z m110 3 c-17 -3 -23 -13 -26 -41
l-4 -37 -1 43 c-2 40 -1 42 26 41 22 -1 23 -2 5 -6z m76 -30 c0 -21 -3 -31 -6
-23 -3 8 -11 18 -17 22 -8 5 -7 8 2 8 18 0 15 18 -5 23 -14 4 -12 5 5 6 19 1
22 -4 21 -36z m169 -3 c3 -33 1 -36 -28 -38 -24 -2 -30 2 -30 17 0 12 10 23
28 29 l27 10 -25 11 -25 11 25 -3 c21 -2 25 -8 28 -37z m86 18 c14 -23 -3 -53
-30 -53 -10 0 -22 -9 -26 -20 -3 -12 -6 4 -7 36 -1 54 0 56 25 55 15 -1 32 -9
38 -18z m49 -21 c4 11 14 27 22 33 13 11 15 6 14 -31 -2 -33 -3 -37 -6 -15
l-5 29 -23 -29 -24 -29 1 45 c1 44 1 44 7 10 6 -31 8 -32 14 -13z m110 36 c-7
-2 -13 -20 -13 -39 0 -19 -4 -34 -10 -34 -5 0 -10 15 -10 34 0 19 -6 37 -12
39 -7 3 3 5 22 5 19 0 29 -2 23 -5z m75 -34 c3 -34 1 -36 -25 -35 -38 1 -44
33 -9 42 32 8 34 21 4 27 -20 5 -20 5 2 4 21 -2 25 -8 28 -38z m53 9 l13 -32
13 32 c18 43 23 40 22 -10 -1 -28 -3 -34 -6 -18 l-5 24 -13 -24 -14 -25 -13
35 -13 35 -6 -35 -6 -35 -2 43 c-1 50 11 54 30 10z m102 -11 c4 11 14 27 22
33 13 11 15 6 14 -31 -2 -33 -3 -37 -6 -15 l-5 29 -23 -29 -24 -29 1 45 c1 44
1 44 7 10 6 -31 8 -32 14 -13z m-669 -29 c7 -5 5 -8 -6 -8 -21 0 -32 16 -22
32 6 9 9 8 12 -2 3 -8 10 -18 16 -22z m756 2 c0 -5 -4 -10 -10 -10 -5 0 -10 5
-10 10 0 6 5 10 10 10 6 0 10 -4 10 -10z m-1465 -99 c-38 -21 -479 -246 -980
-501 -1187 -604 -1120 -568 -1101 -589 9 -10 16 -21 16 -24 0 -4 -29 -7 -65
-7 -39 0 -65 4 -65 11 0 15 59 99 70 99 6 0 10 -8 10 -18 0 -10 2 -21 5 -24 3
-3 488 241 1078 543 589 301 1079 548 1087 548 8 0 -16 -16 -55 -38z m2732
-518 c-1 -43 -3 -10 -3 72 0 83 2 118 3 78 2 -40 2 -107 0 -150z m0 -525 c-2
-35 -3 -7 -3 62 0 69 1 97 3 63 2 -35 2 -91 0 -125z m565 -65 c-73 -2 -190 -2
-260 0 -70 1 -10 3 133 3 143 0 200 -2 127 -3z"/>
<path d="M7038 5393 c27 -5 27 -8 1 -44 l-20 -29 28 1 c18 1 22 3 10 6 -17 4
-18 6 -2 24 22 23 12 49 -17 48 l-23 -2 23 -4z"/>
<path d="M6877 5366 c-10 -26 4 -47 27 -44 15 2 21 10 21 28 0 29 -38 41 -48
16z m43 -16 c0 -11 -7 -20 -15 -20 -8 0 -15 9 -15 20 0 11 7 20 15 20 8 0 15
-9 15 -20z"/>
<path d="M6940 5350 c0 -24 3 -31 9 -21 6 9 11 10 15 2 4 -6 13 -11 19 -11 8
0 9 3 1 8 -5 4 -18 18 -27 32 l-17 24 0 -34z"/>
<path d="M7125 5371 l20 -8 -20 -5 c-16 -5 -17 -6 -2 -7 9 0 17 -5 17 -10 0
-5 -8 -12 -17 -15 -14 -4 -14 -4 2 -3 14 2 20 10 20 27 0 17 -6 26 -20 27
l-20 3 20 -9z"/>
<path d="M7166 5372 c7 -4 14 -18 17 -32 l4 -25 2 27 c0 14 7 29 14 31 6 3 -1
6 -18 6 -16 0 -25 -3 -19 -7z"/>
<path d="M7234 5372 c19 -8 19 -9 -2 -14 -12 -4 -22 -13 -22 -22 0 -19 60 -22
78 -4 9 9 12 9 12 -2 1 -11 3 -11 11 3 6 10 6 23 1 32 -7 13 -11 11 -22 -10
-17 -31 -28 -32 -32 -3 -2 14 -11 24 -23 25 -19 3 -19 3 -1 -5z m11 -32 c-3
-5 -10 -10 -16 -10 -5 0 -9 5 -9 10 0 6 7 10 16 10 8 0 12 -4 9 -10z"/>
<path d="M2505 3790 c-5 -9 -1 -10 13 -6 32 11 37 -13 8 -43 -34 -36 -33 -41
12 -40 31 2 33 3 8 6 l-28 5 22 23 c12 13 20 31 18 42 -4 21 -43 30 -53 13z"/>
<path d="M2585 3790 c-4 -7 2 -9 19 -4 30 7 35 -9 9 -25 -17 -10 -17 -10 0
-11 30 0 21 -38 -10 -43 l-28 -4 26 -2 c34 -1 56 23 40 43 -8 9 -8 16 -2 20 6
4 8 13 4 21 -6 17 -49 20 -58 5z"/>
<path d="M2710 3791 c0 -5 -3 -16 -6 -25 -5 -12 0 -16 21 -16 20 0 26 -4 23
-17 -2 -11 -12 -18 -26 -17 -12 0 -22 -3 -22 -8 0 -13 47 -9 59 6 15 18 3 46
-20 46 -27 0 -24 28 4 33 19 4 18 4 -5 6 -16 0 -28 -3 -28 -8z"/>
<path d="M2953 3793 c-7 -2 -13 -9 -13 -14 0 -6 5 -7 10 -4 6 4 10 -10 10 -34
0 -23 5 -41 10 -41 6 0 10 23 10 50 0 49 -3 53 -27 43z"/>
<path d="M3020 3791 c0 -5 -3 -16 -6 -25 -5 -12 0 -16 21 -16 20 0 26 -4 23
-17 -2 -11 -12 -18 -26 -17 -12 0 -22 -3 -22 -8 0 -13 47 -9 59 6 15 18 3 46
-20 46 -27 0 -24 28 4 33 19 4 18 4 -5 6 -16 0 -28 -3 -28 -8z"/>
<path d="M3140 3791 c0 -5 -3 -16 -6 -25 -5 -12 0 -16 21 -16 20 0 26 -4 23
-17 -2 -11 -12 -18 -26 -17 -12 0 -22 -3 -22 -8 0 -13 47 -9 59 6 15 18 3 46
-20 46 -27 0 -24 28 4 33 19 4 18 4 -5 6 -16 0 -28 -3 -28 -8z"/>
<path d="M2820 3772 c0 -6 5 -14 11 -17 7 -5 5 -15 -6 -31 -8 -13 -11 -24 -6
-24 6 0 14 8 20 18 9 16 10 16 16 0 4 -10 11 -18 16 -18 5 0 4 11 -3 25 -8 19
-8 28 2 40 7 9 8 15 2 15 -6 0 -12 -6 -15 -12 -3 -10 -7 -10 -20 1 -10 8 -17
9 -17 3z"/>
<path d="M2665 3710 c-3 -5 -1 -10 4 -10 6 0 11 5 11 10 0 6 -2 10 -4 10 -3 0
-8 -4 -11 -10z"/>
<path d="M3095 3710 c-3 -5 -1 -10 4 -10 6 0 11 5 11 10 0 6 -2 10 -4 10 -3 0
-8 -4 -11 -10z"/>
<path d="M4285 1904 c3 -31 10 -38 30 -30 22 8 15 37 -12 47 -18 7 -21 4 -18
-17z"/>
<path d="M5862 1898 c2 -13 10 -23 18 -23 8 0 16 10 18 23 3 17 -2 22 -18 22
-16 0 -21 -5 -18 -22z"/>
<path d="M4143 1900 c-10 -27 -9 -30 8 -30 14 0 19 7 19 30 0 17 -4 30 -8 30
-4 0 -13 -13 -19 -30z"/>
<path d="M4546 1915 c-7 -20 3 -45 19 -45 16 0 26 25 19 45 -4 8 -12 15 -19
15 -7 0 -15 -7 -19 -15z"/>
<path d="M4705 1920 c-3 -5 3 -10 15 -10 12 0 18 5 15 10 -3 6 -10 10 -15 10
-5 0 -12 -4 -15 -10z"/>
<path d="M5024 1916 c-8 -22 3 -49 19 -43 6 2 12 14 12 27 0 27 -22 39 -31 16z"/>
<path d="M5284 1915 c-8 -21 2 -45 20 -45 17 0 28 24 20 45 -4 8 -13 15 -20
15 -8 0 -17 -7 -20 -15z"/>
<path d="M5374 1916 c-8 -22 3 -49 19 -43 6 2 12 14 12 27 0 27 -22 39 -31 16z"/>
<path d="M5945 1889 c-4 -6 -4 -13 -1 -16 8 -8 36 5 36 17 0 13 -27 13 -35 -1z"/>
<path d="M6026 1915 c-7 -20 3 -45 19 -45 16 0 26 25 19 45 -4 8 -12 15 -19
15 -7 0 -15 -7 -19 -15z"/>
<path d="M6265 1889 c-4 -6 -4 -13 -1 -16 8 -8 36 5 36 17 0 13 -27 13 -35 -1z"/>
<path d="M8536 2867 c-49 -36 -29 -177 26 -177 4 0 8 43 8 95 0 52 -4 95 -8
95 -5 0 -16 -6 -26 -13z"/>
</g>
</svg>
